<?xml version="1.0" encoding="UTF-8"?>
<svg id="Layer_2" data-name="Layer 2" xmlns="http://www.w3.org/2000/svg" viewBox="0 0 487.24 171.31">
  <defs>
    <style>
      .cls-1 {
        fill: #6f62ff;
      }
    </style>
  </defs>
  <g id="Layer_1-2" data-name="Layer 1">
    <path class="cls-1" d="M3.48,97.79s1.21.55,3.65,1.65c2.43,1.1,5.9,2.2,10.4,3.29,4.5,1.1,9.79,1.77,15.88,2,4.38.13,7.69-.6,9.94-2.19s3.77-3.5,4.56-5.75,1.25-4.22,1.38-5.92c-2.56,1.95-5.57,3.56-9.04,4.83-3.46,1.28-7.5,1.97-12.13,2.08-6.7.25-11.93-.59-15.71-2.54-3.77-1.94-6.53-4.59-8.29-7.94-1.77-3.34-2.89-6.96-3.38-10.85-.49-3.9-.73-7.67-.73-11.31V29.38h41.06l.35,39.6c0,1.95.91,3.25,2.73,3.92,1.83.67,3.66.67,5.48,0,1.83-.67,2.75-1.97,2.75-3.92l-.73-39.6h40.31v38.15c0,10.08-.18,18.41-.54,24.98-.36,6.57-1.31,12.02-2.83,16.33-1.52,4.32-3.92,8.06-7.21,11.23-3.28,3.17-7.84,6.39-13.69,9.67-4.61,2.68-9.78,4.42-15.5,5.21-5.72.79-11.45,1-17.17.63-5.71-.36-10.94-1-15.69-1.92-4.74-.91-8.56-1.79-11.48-2.65-2.92-.85-4.38-1.27-4.38-1.27v-31.94Z"/>
    <path class="cls-1" d="M139.21,118.42c-7.67,0-14.52-1.46-20.54-4.38-6.02-2.92-10.76-7.69-14.23-14.31-3.46-6.64-5.19-15.61-5.19-26.92s2.36-19.92,7.1-26.54c4.75-6.64,11.07-11.44,18.98-14.42,7.92-2.98,16.49-4.48,25.73-4.48,8.28,0,15.67,1.68,22.17,5.02,6.51,3.33,11.65,8.04,15.42,14.13,3.78,6.08,5.55,13.27,5.31,21.54l-1.29,50.17h-30.46l-.92-11.5c-2.32,3.29-5.49,6.06-9.5,8.31-4.02,2.25-8.21,3.38-12.58,3.38ZM136.48,81.02c0,3.04.78,5.18,2.35,6.4,1.58,1.21,3.53,1.81,5.85,1.81s4.25-.67,5.83-2c1.58-1.34,2.38-3.42,2.38-6.21s-.79-4.71-2.38-6.1c-1.58-1.4-3.53-2.1-5.83-2.1s-4.27.61-5.85,1.83c-1.57,1.21-2.35,3.33-2.35,6.38Z"/>
    <path class="cls-1" d="M239.56,118.42c-9.24,0-16.47-2.36-21.71-7.1-5.22-4.75-7.83-11.86-7.83-21.35v-18.79l-8.77-3.48V29.19h8.77l-.19-25.9,42.69-3.29-1.08,29.19h15.15v41.98h-16.25l-.19,9.85c0,1.57.73,2.35,2.19,2.35h14.25v31.21c-3.91,1.33-7.77,2.31-11.6,2.92-3.82.61-8.96.92-15.42.92Z"/>
    <path class="cls-1" d="M312.17,118.42c-9.24,0-16.47-2.36-21.71-7.1-5.22-4.75-7.83-11.86-7.83-21.35v-18.79l-8.77-3.48V29.19h8.77l-.19-25.9,42.69-3.29-1.08,29.19h15.15v41.98h-16.25l-.19,9.85c0,1.57.73,2.35,2.19,2.35h14.25v31.21c-3.91,1.33-7.77,2.31-11.6,2.92-3.82.61-8.96.92-15.42.92Z"/>
    <path class="cls-1" d="M347.47,118.42l3.29-116.77h36.67l3.48,116.77h-43.44Z"/>
    <path class="cls-1" d="M444.55,118.42c-8.77,0-16.65-1.46-23.65-4.38-6.99-2.92-12.52-7.78-16.6-14.58-4.07-6.82-6.1-16.07-6.1-27.75,0-11.07,2.03-19.85,6.1-26.35,4.08-6.51,9.61-11.17,16.6-13.96,7-2.8,14.88-4.21,23.65-4.21s15.75,1.25,21.33,3.75c5.59,2.49,9.94,5.93,13.04,10.31,3.11,4.38,5.27,9.48,6.48,15.31,1.22,5.83,1.83,12.04,1.83,18.6v6.75h-49.44c0,2.68,1.06,4.6,3.19,5.75,2.13,1.16,4.89,1.83,8.29,2.02,3.42.18,6.98.03,10.69-.46,3.71-.48,7.14-1.13,10.29-1.92,3.17-.79,5.6-1.55,7.31-2.29v25c-3.89,2.32-7.51,4.09-10.85,5.31-3.35,1.21-6.76,2.03-10.23,2.46-3.46.42-7.44.63-11.94.63ZM437.8,71.71h14.96c0-2.43-.68-4.4-2.02-5.92-1.33-1.53-3.22-2.29-5.65-2.29-1.95,0-3.65.68-5.1,2.02-1.46,1.33-2.19,3.4-2.19,6.19Z"/>
    <path class="cls-1" d="M176.8,170.73c-2.6,0-4.93-.43-7-1.29-2.07-.86-3.71-2.3-4.92-4.31-1.2-2.01-1.79-4.75-1.79-8.21,0-3.28.59-5.88,1.79-7.79,1.21-1.93,2.84-3.3,4.92-4.13,2.07-.83,4.4-1.25,7-1.25,4.23,0,7.39,1.14,9.46,3.4,2.07,2.27,3.13,5.43,3.17,9.5v2.38l-11.5.81v-1.25c0-.64-.27-1.06-.79-1.27-.52-.22-1.04-.2-1.56.06-.52.27-.77.81-.77,1.65v.92c0,.79.31,1.36.94,1.71.63.33,1.44.53,2.46.58,1.01.06,2.07.02,3.17-.13,1.09-.15,2.11-.34,3.04-.56.93-.23,1.65-.46,2.15-.69v7.4c-1.14.68-2.21,1.2-3.21,1.56-.99.36-1.99.6-3.02.73-1.03.13-2.2.19-3.52.19Z"/>
    <path class="cls-1" d="M191.58,170.73l.96-34.48h10.85l.33,11.6c.79-1.04,1.81-1.96,3.06-2.77,1.26-.82,2.88-1.23,4.85-1.23s3.67.4,4.83,1.19,2.02,1.83,2.56,3.1c.54,1.28.88,2.68,1.02,4.19.15,1.52.23,3.01.23,4.48v13.92h-12.58l-.04-11.54c0-.72-.18-1.24-.52-1.56-.35-.33-.76-.48-1.23-.46-.46.02-.86.19-1.21.52-.33.32-.5.77-.5,1.33l.21,11.71h-12.83Z"/>
    <path class="cls-1" d="M236.25,171.06c-2.56,0-4.88-.43-6.96-1.29-2.08-.88-3.75-2.3-5-4.29-1.24-2-1.85-4.71-1.85-8.13s.61-6.09,1.85-8.1c1.25-2.01,2.92-3.48,5-4.4s4.4-1.38,6.96-1.38,4.92.55,7,1.65c2.09,1.1,3.76,2.68,4.98,4.73,1.22,2.04,1.83,4.54,1.83,7.5s-.61,5.65-1.83,7.69c-1.22,2.03-2.89,3.54-4.98,4.54-2.08.99-4.42,1.48-7,1.48ZM233.77,159.73c0,.93.24,1.58.73,1.96.48.38,1.07.56,1.75.56.72,0,1.32-.21,1.81-.65.48-.43.73-1.05.73-1.88,0-.76-.24-1.34-.73-1.75-.49-.42-1.09-.63-1.81-.63s-1.27.18-1.75.52c-.49.33-.73.95-.73,1.85Z"/>
    <path class="cls-1" d="M266.03,171.06c-2.56,0-4.88-.43-6.96-1.29-2.08-.88-3.75-2.3-5-4.29-1.24-2-1.85-4.71-1.85-8.13s.61-6.09,1.85-8.1c1.25-2.01,2.92-3.48,5-4.4s4.4-1.38,6.96-1.38,4.92.55,7,1.65c2.09,1.1,3.76,2.68,4.98,4.73,1.22,2.04,1.83,4.54,1.83,7.5s-.61,5.65-1.83,7.69c-1.22,2.03-2.89,3.54-4.98,4.54-2.08.99-4.42,1.48-7,1.48ZM263.55,159.73c0,.93.24,1.58.73,1.96.48.38,1.07.56,1.75.56.72,0,1.32-.21,1.81-.65.48-.43.73-1.05.73-1.88,0-.76-.24-1.34-.73-1.75-.49-.42-1.09-.63-1.81-.63s-1.27.18-1.75.52c-.49.33-.73.95-.73,1.85Z"/>
    <path class="cls-1" d="M293.6,171c-2.31,0-4.34-.22-6.1-.67-1.77-.46-3.44-.94-5.02-1.44v-9.29c.61.29,1.41.56,2.4.81,1,.25,2.05.45,3.15.6,1.09.14,2.07.23,2.94.27.43,0,.65-.18.65-.54,0-.32-.2-.52-.6-.6-2.88-.36-5.1-1.1-6.67-2.23-1.56-1.14-2.33-3-2.33-5.58,0-2.05.53-3.73,1.58-5.02,1.07-1.29,2.5-2.25,4.29-2.88,1.8-.64,3.84-.96,6.1-.96,2.13,0,4.18.23,6.17.69,2,.45,3.67.92,5,1.42v10.79c-1.95-1-4.7-1.52-8.25-1.56-.47,0-.71.16-.71.48,0,.33.19.54.58.6,2.05.21,3.73.54,5.04,1,1.32.45,2.3,1.13,2.94,2.04.65.92.98,2.24.98,3.96,0,2.06-.52,3.68-1.56,4.88-1.04,1.18-2.48,2.02-4.31,2.5-1.83.48-3.92.73-6.25.73Z"/>
    <path class="cls-1" d="M321.6,170.73c-2.6,0-4.93-.43-7-1.29-2.07-.86-3.71-2.3-4.92-4.31-1.2-2.01-1.79-4.75-1.79-8.21,0-3.28.59-5.88,1.79-7.79,1.21-1.93,2.84-3.3,4.92-4.13,2.07-.83,4.4-1.25,7-1.25s4.66.37,6.31,1.1c1.65.74,2.94,1.76,3.85,3.06.92,1.29,1.55,2.8,1.92,4.52.36,1.72.54,3.56.54,5.5v2h-14.63c0,.79.31,1.36.94,1.71.63.33,1.44.53,2.46.58,1.01.06,2.07.02,3.17-.13,1.09-.15,2.11-.34,3.04-.56.93-.23,1.65-.46,2.15-.69v7.4c-1.14.68-2.21,1.2-3.21,1.56-.99.36-1.99.6-3.02.73-1.03.13-2.2.19-3.52.19ZM319.6,156.92h4.42c0-.72-.2-1.3-.6-1.75-.39-.46-.95-.69-1.67-.69-.57,0-1.07.2-1.5.6-.43.39-.65,1-.65,1.83Z"/>
    <path class="cls-1" d="M357.26,171.31c-1.88,0-3.35-.39-4.44-1.17-1.08-.79-1.88-1.82-2.38-3.1-.5-1.28-.81-2.67-.94-4.19-.13-1.51-.19-2.99-.19-4.44v-13.96h11.6l.1,11.27c0,.72.14,1.3.42,1.73.29.43.73.52,1.31.27.18-.07.34-.17.5-.29.17-.13.28-.35.35-.69v-12.29h11.67l.1,11.27c0,.72.15,1.3.46,1.73.3.43.74.52,1.31.27.18-.07.36-.19.54-.35.18-.17.29-.43.33-.79l-.27-12.13h13.17l-.88,26.21h-9.6l-.42-5.33c-.41.91-.96,1.82-1.67,2.75-.7.93-1.59,1.7-2.69,2.31-1.1.61-2.46.92-4.08.92-1.91,0-3.4-.41-4.48-1.21-1.07-.8-1.85-1.84-2.35-3.1-.7,1.13-1.65,2.13-2.85,3-1.2.88-2.74,1.31-4.65,1.31Z"/>
    <path class="cls-1" d="M406.89,171.06c-2.56,0-4.88-.43-6.96-1.29-2.08-.88-3.75-2.3-5-4.29-1.24-2-1.85-4.71-1.85-8.13s.61-6.09,1.85-8.1c1.25-2.01,2.92-3.48,5-4.4s4.4-1.38,6.96-1.38,4.92.55,7,1.65c2.09,1.1,3.76,2.68,4.98,4.73,1.22,2.04,1.83,4.54,1.83,7.5s-.61,5.65-1.83,7.69c-1.22,2.03-2.89,3.54-4.98,4.54-2.08.99-4.42,1.48-7,1.48ZM404.41,159.73c0,.93.24,1.58.73,1.96.48.38,1.07.56,1.75.56.72,0,1.32-.21,1.81-.65.48-.43.73-1.05.73-1.88,0-.76-.24-1.34-.73-1.75-.49-.42-1.09-.63-1.81-.63s-1.27.18-1.75.52c-.49.33-.73.95-.73,1.85Z"/>
    <path class="cls-1" d="M422.86,170.73l.75-26.23h8.96l.44,5.77c1.18-2.72,2.9-4.57,5.17-5.56,2.28-1,4.78-1.13,7.5-.38l-1.06,13.77-7.73-.75c-.79-.07-1.33.09-1.63.48-.28.39-.42.93-.42,1.63l.21,11.27h-12.19Z"/>
    <path class="cls-1" d="M447.84,170.73l.96-34.48h10.85l.54,17.75h.98l3.5-9.54h11.65l-4.35,10.35,3.81,15.92h-11.71l-2.04-9.23h-1.63l.27,9.23h-12.83Z"/>
  </g>
</svg>